<?xml version="1.0" encoding="UTF-8"?>
<svg id="Layer_1" data-name="Layer 1" xmlns="http://www.w3.org/2000/svg" version="1.1" viewBox="0 0 660 660">
  <defs>
    <style>
      .cls-1 {
        fill: #000;
        stroke-width: 0px;
      }

      .cls-2 {
        fill: #e8dacb;
        stroke: #000;
        stroke-miterlimit: 10;
      }
    </style>
  </defs>
  <circle class="cls-1" cx="330" cy="330" r="330"/>
  <g>
    <path class="cls-2" d="M408.34,152.09c4.01-14.05-4.12-28.69-18.17-32.7-14.05-4.01-28.69,4.12-32.7,18.17l-105.82,370.36c-4.01,14.05,4.12,28.69,18.17,32.7,14.05,4.02,28.69-4.12,32.7-18.17l105.82-370.36Z"/>
    <path class="cls-2" d="M165.96,208.28c8.78,11.68,6.44,28.26-5.23,37.04l-84.45,63.54c-14.07,10.58-14.07,31.69,0,42.28l84.45,63.54c11.67,8.79,14.02,25.37,5.23,37.04-8.78,11.68-25.37,14.02-37.04,5.24l-84.45-63.54c-42.2-31.75-42.2-95.09,0-126.84l84.45-63.54c11.68-8.78,28.26-6.44,37.04,5.23Z"/>
    <path class="cls-2" d="M494.04,451.72c-8.78-11.67-6.44-28.26,5.24-37.04l84.45-63.54c14.07-10.58,14.07-31.69,0-42.28l-84.45-63.54c-11.67-8.78-14.02-25.37-5.24-37.04,8.79-11.67,25.37-14.02,37.04-5.23l84.45,63.54c42.2,31.75,42.2,95.09,0,126.84l-84.45,63.54c-11.67,8.78-28.26,6.44-37.04-5.24Z"/>
  </g>
</svg>