<?xml version="1.0" encoding="UTF-8"?>
<svg id="Layer_1" data-name="Layer 1" xmlns="http://www.w3.org/2000/svg" version="1.1" viewBox="0 0 574.93 559.58">
  <defs>
    <style>
      .cls-1 {
        fill: #000;
        stroke-width: 0px;
      }

      .cls-2 {
        fill: #e8dacb;
        stroke: #231f20;
        stroke-miterlimit: 10;
      }
    </style>
  </defs>
  <ellipse class="cls-1" cx="287.47" cy="279.79" rx="287.47" ry="279.79"/>
  <path class="cls-2" d="M306.38,152.13c-6.12-11.38-18.2-18.54-31.4-18.61H112.13c-13.06,0-23.65,10.28-23.69,22.99v12.15h226.93l-8.99-16.53Z"/>
  <path class="cls-2" d="M462.87,189.5H88.44v213.58c.04,12.71,10.64,22.99,23.69,22.99h350.67c13.06,0,23.65-10.28,23.69-22.99v-190.45c.04-12.74-10.54-23.09-23.62-23.13h0ZM232.09,342.3h-15.2v-62.51l-16.13,62.51h-15.77l-16.06-62.51v62.51h-15.27v-78.9h24.55l14.77,53.9,14.27-53.9h24.55v78.9h.29ZM264.27,342.3h-16.34v-78.9h16.34v78.9ZM337.92,331.95c-2.58,3.99-6.41,7.08-10.92,8.82-5.64,2.1-11.66,3.09-17.7,2.92-8.5.57-16.93-1.9-23.69-6.95-5.84-5.25-9.36-12.49-9.85-20.21l15.99-1.46c.51,4.37,2.58,8.43,5.85,11.46,3.36,2.59,7.57,3.9,11.85,3.68,4.26.28,8.5-.87,11.99-3.26,2.46-1.82,3.93-4.63,4-7.64.07-1.75-.54-3.46-1.71-4.79-1.63-1.62-3.68-2.79-5.92-3.4-1.93-.63-6.28-1.81-13.13-3.47-6.69-1.19-13.01-3.85-18.48-7.78-8.03-6.8-9.7-18.31-3.92-27.02,2.44-3.62,5.98-6.42,10.13-7.99,5.08-1.99,10.52-2.93,15.99-2.78,8.22-.6,16.38,1.72,22.98,6.53,5.16,4.4,8.13,10.75,8.14,17.43l-16.34.69c-.32-3.36-1.92-6.49-4.5-8.75-3.06-2.02-6.73-2.98-10.42-2.71-3.94-.22-7.84.8-11.13,2.92-1.69,1.06-2.69,2.9-2.64,4.86-.01,1.88.89,3.66,2.43,4.79,4.62,2.68,9.74,4.48,15.06,5.28,6.1,1.23,12.04,3.14,17.7,5.7,3.71,1.82,6.82,4.61,8.99,8.06,4.6,7.9,4.35,17.62-.64,25.28l-.07-.21ZM411.35,337.37c-15.13,9.8-35.24,7.92-48.17-4.51-7.32-8.07-11.06-18.63-10.42-29.38-.68-11.13,3.04-22.09,10.42-30.63,7.15-7.31,17.18-11.28,27.55-10.9,8.92-.39,17.63,2.72,24.19,8.61,4.03,4.04,6.85,9.09,8.14,14.59l-16.27,3.82c-1.52-7.93-8.78-13.57-17.06-13.27-5.62-.18-11.02,2.11-14.7,6.25-4.35,6.08-6.35,13.46-5.64,20.84-.71,7.52,1.25,15.05,5.57,21.32,3.51,4.14,8.76,6.49,14.27,6.39,4.13.06,8.14-1.4,11.2-4.1,3.59-3.43,5.97-7.88,6.78-12.71l15.91,4.93c-1.71,7.38-5.84,14.01-11.77,18.89v-.14Z"/>
</svg>